<svg width="480" height="320" viewBox="0 0 480 320" fill="none" xmlns="http://www.w3.org/2000/svg">
  <defs>
    <linearGradient id="bg" x1="44" y1="36" x2="432" y2="292" gradientUnits="userSpaceOnUse">
      <stop stop-color="#F8FAFC"/>
      <stop offset="1" stop-color="#E2E8F0"/>
    </linearGradient>
    <linearGradient id="accent" x1="120" y1="84" x2="356" y2="236" gradientUnits="userSpaceOnUse">
      <stop stop-color="#0EA5E9"/>
      <stop offset="1" stop-color="#4F46E5"/>
    </linearGradient>
  </defs>
  <rect width="480" height="320" rx="32" fill="#F8FAFC"/>
  <rect x="24" y="24" width="432" height="272" rx="28" fill="url(#bg)" stroke="#CBD5E1"/>
  <path d="M72 102H396" stroke="#CBD5E1" stroke-width="8" stroke-linecap="round"/>
  <path d="M72 216H396" stroke="#CBD5E1" stroke-width="8" stroke-linecap="round"/>
  <rect x="112" y="90" width="180" height="22" rx="11" fill="#1E293B" fill-opacity="0.08" stroke="#475569" stroke-opacity="0.28"/>
  <rect x="188" y="204" width="150" height="22" rx="11" fill="#1E293B" fill-opacity="0.08" stroke="#475569" stroke-opacity="0.28"/>
  <rect x="176" y="118" width="132" height="84" rx="22" fill="url(#accent)"/>
  <rect x="196" y="138" width="92" height="44" rx="12" fill="#F8FAFC" fill-opacity="0.9"/>
  <circle cx="140" cy="101" r="10" fill="#94A3B8"/>
  <circle cx="268" cy="101" r="10" fill="#94A3B8"/>
  <circle cx="214" cy="215" r="10" fill="#94A3B8"/>
  <circle cx="314" cy="215" r="10" fill="#94A3B8"/>
  <path d="M92 72L388 72" stroke="#94A3B8" stroke-width="2" stroke-dasharray="8 8"/>
  <path d="M104 60V84" stroke="#94A3B8" stroke-width="2" stroke-linecap="round"/>
  <path d="M376 60V84" stroke="#94A3B8" stroke-width="2" stroke-linecap="round"/>
</svg>
