<svg width="480" height="320" viewBox="0 0 480 320" fill="none" xmlns="http://www.w3.org/2000/svg">
  <defs>
    <linearGradient id="bg" x1="36" y1="30" x2="430" y2="292" gradientUnits="userSpaceOnUse">
      <stop stop-color="#F8FAFC"/>
      <stop offset="1" stop-color="#E2E8F0"/>
    </linearGradient>
    <linearGradient id="accent" x1="116" y1="108" x2="360" y2="204" gradientUnits="userSpaceOnUse">
      <stop stop-color="#0EA5E9"/>
      <stop offset="1" stop-color="#6366F1"/>
    </linearGradient>
  </defs>
  <rect width="480" height="320" rx="32" fill="#F8FAFC"/>
  <rect x="24" y="24" width="432" height="272" rx="28" fill="url(#bg)" stroke="#CBD5E1"/>
  <rect x="96" y="170" width="288" height="42" rx="21" fill="#0F172A" fill-opacity="0.08" stroke="#475569" stroke-opacity="0.22"/>
  <rect x="112" y="128" width="56" height="54" rx="18" fill="url(#accent)"/>
  <rect x="188" y="128" width="56" height="54" rx="18" fill="url(#accent)"/>
  <rect x="264" y="128" width="56" height="54" rx="18" fill="url(#accent)"/>
  <rect x="340" y="128" width="28" height="54" rx="14" fill="#94A3B8"/>
  <path d="M126 110V128" stroke="#475569" stroke-width="6" stroke-linecap="round"/>
  <path d="M202 110V128" stroke="#475569" stroke-width="6" stroke-linecap="round"/>
  <path d="M278 110V128" stroke="#475569" stroke-width="6" stroke-linecap="round"/>
  <circle cx="140" cy="154" r="10" fill="#F8FAFC" fill-opacity="0.9"/>
  <circle cx="216" cy="154" r="10" fill="#F8FAFC" fill-opacity="0.9"/>
  <circle cx="292" cy="154" r="10" fill="#F8FAFC" fill-opacity="0.9"/>
  <path d="M92 92H390" stroke="#94A3B8" stroke-width="2" stroke-dasharray="8 8"/>
  <path d="M106 80V104" stroke="#94A3B8" stroke-width="2" stroke-linecap="round"/>
  <path d="M374 80V104" stroke="#94A3B8" stroke-width="2" stroke-linecap="round"/>
</svg>
